<?xml version="1.0" encoding="UTF-8" standalone="yes"?>
<svg width="512" height="512" viewBox="0 0 512 512" fill="none" version="1.2" baseProfile="tiny-ps" xmlns="http://www.w3.org/2000/svg">
  <title>bimi-svg-tiny-12-ps</title>
  <path d="M93.516 232.513L68.022 198H34L76.55 255.478L34 312.999H68.022L93.516 278.444L119.055 312.999H153.077L110.527 255.478L153.077 198H119.055L93.516 232.513Z" fill="#F8157F"/>
  <path d="M158.855 266.379H226.439V244.623H158.855V266.379Z" fill="#F8157F"/>
  <path d="M229.657 198H158.855V219.757H229.657V198Z" fill="#F8157F"/>
  <path d="M229.657 291.243H158.855V313H229.657V291.243Z" fill="#F8157F"/>
  <path d="M273.775 312.956H246.351V198H273.775L321.599 269.377H321.912V198H349.336V312.999H321.912L274.088 241.622H273.775V312.956Z" fill="#F8157F"/>
  <path d="M355.114 312.999L403.577 198H428.903L477.409 312.999H447.975L416.396 233.552H416.127L384.505 312.999H355.114Z" fill="#F8157F"/>
</svg>