<svg width="292" height="30" viewBox="0 0 292 30" fill="none" xmlns="http://www.w3.org/2000/svg">
<path d="M24.9722 10.449L15.2351 0.814463C14.7078 0.292675 13.9959 0 13.254 0C10.7738 0 9.50433 2.97391 11.22 4.76502L20.3467 14.2928C20.4293 14.3791 20.4279 14.5157 20.3434 14.6002L11.0695 24.6984C9.38134 26.5366 10.6853 29.5046 13.1812 29.5046C13.9671 29.5046 14.7185 29.182 15.2598 28.6123L25.093 18.2615C27.1858 16.0585 27.1321 12.5862 24.9722 10.449Z" fill="#5E00A8"/>
<path d="M12.7861 10.4106L6.56067 4.25067C6.16925 3.86336 5.64082 3.64612 5.09017 3.64612C3.24915 3.64612 2.30687 5.85355 3.58038 7.18303L10.3548 14.2552C10.4162 14.3193 10.4151 14.4207 10.3523 14.4834L3.46868 21.9789C2.21558 23.3434 3.18349 25.5465 5.03608 25.5465C5.61941 25.5465 6.17717 25.307 6.57894 24.8841L12.9069 18.223C14.9998 16.0201 14.9461 12.5478 12.7861 10.4106Z" fill="#5E00A8"/>
<path d="M43.1055 24.2523C42.9307 24.2523 42.785 24.1941 42.6685 24.0775C42.552 23.9416 42.4937 23.7959 42.4937 23.6405C42.4937 23.5823 42.5034 23.524 42.5228 23.4657C42.5423 23.4075 42.5617 23.3492 42.5811 23.291L49.0193 13.8521L43.0181 4.82111C42.9598 4.70458 42.9307 4.58805 42.9307 4.47152C42.9307 4.31615 42.9889 4.1802 43.1055 4.06367C43.222 3.92772 43.3677 3.85974 43.5425 3.85974H47.1257C47.3782 3.85974 47.5724 3.92772 47.7084 4.06367C47.8637 4.19962 47.9803 4.32586 48.058 4.44239L51.9617 10.2397L55.8945 4.44239C55.9722 4.32586 56.0888 4.19962 56.2441 4.06367C56.3995 3.92772 56.6034 3.85974 56.8559 3.85974H60.2644C60.4197 3.85974 60.5557 3.92772 60.6722 4.06367C60.8082 4.1802 60.8762 4.31615 60.8762 4.47152C60.8762 4.60747 60.8373 4.724 60.7596 4.82111L54.7584 13.823L61.2257 23.291C61.2646 23.3492 61.284 23.4075 61.284 23.4657C61.3034 23.524 61.3131 23.5823 61.3131 23.6405C61.3131 23.7959 61.2549 23.9416 61.1383 24.0775C61.0218 24.1941 60.8762 24.2523 60.7014 24.2523H57.0016C56.7491 24.2523 56.5452 24.1843 56.3898 24.0484C56.2538 23.9124 56.147 23.7959 56.0693 23.6988L51.816 17.581L47.5918 23.6988C47.5336 23.7959 47.4268 23.9124 47.2714 24.0484C47.1354 24.1843 46.9315 24.2523 46.6596 24.2523H43.1055ZM64.6278 24.2523C64.4142 24.2523 64.2394 24.1843 64.1035 24.0484C63.9675 23.9124 63.8995 23.7376 63.8995 23.524V4.58805C63.8995 4.37441 63.9675 4.19962 64.1035 4.06367C64.2394 3.92772 64.4142 3.85974 64.6278 3.85974H77.8248C78.0384 3.85974 78.2132 3.92772 78.3491 4.06367C78.4851 4.19962 78.5531 4.37441 78.5531 4.58805V6.91863C78.5531 7.11284 78.4851 7.27793 78.3491 7.41388C78.2132 7.54983 78.0384 7.6178 77.8248 7.6178H68.3859V12.1916H77.1838C77.3975 12.1916 77.5723 12.2595 77.7082 12.3955C77.8442 12.5314 77.9121 12.7062 77.9121 12.9199V15.0757C77.9121 15.2699 77.8442 15.435 77.7082 15.5709C77.5723 15.7069 77.3975 15.7748 77.1838 15.7748H68.3859V20.4943H78.0578C78.2714 20.4943 78.4462 20.5622 78.5822 20.6982C78.7181 20.8341 78.7861 21.0089 78.7861 21.2226V23.524C78.7861 23.7376 78.7181 23.9124 78.5822 24.0484C78.4462 24.1843 78.2714 24.2523 78.0578 24.2523H64.6278ZM82.9777 24.2523C82.7641 24.2523 82.5893 24.1843 82.4534 24.0484C82.3174 23.9124 82.2494 23.7376 82.2494 23.524V4.58805C82.2494 4.37441 82.3174 4.19962 82.4534 4.06367C82.5893 3.92772 82.7641 3.85974 82.9777 3.85974H85.6288C85.9201 3.85974 86.1337 3.92772 86.2697 4.06367C86.4056 4.19962 86.493 4.30644 86.5319 4.38412L94.3102 16.5323V4.58805C94.3102 4.37441 94.3782 4.19962 94.5141 4.06367C94.6501 3.92772 94.8151 3.85974 95.0094 3.85974H97.9809C98.1945 3.85974 98.3693 3.92772 98.5052 4.06367C98.6412 4.19962 98.7092 4.37441 98.7092 4.58805V23.524C98.7092 23.7182 98.6412 23.893 98.5052 24.0484C98.3693 24.1843 98.1945 24.2523 97.9809 24.2523H95.3007C95.0094 24.2523 94.7957 24.1843 94.6598 24.0484C94.5432 23.893 94.4559 23.7862 94.3976 23.7279L86.6484 11.9585V23.524C86.6484 23.7376 86.5804 23.9124 86.4445 24.0484C86.3085 24.1843 86.1337 24.2523 85.9201 24.2523H82.9777ZM101.823 24.2523C101.648 24.2523 101.503 24.1941 101.386 24.0775C101.27 23.9416 101.211 23.7959 101.211 23.6405C101.211 23.5434 101.221 23.456 101.24 23.3784L108.174 4.64631C108.232 4.43268 108.349 4.24817 108.524 4.0928C108.698 3.93743 108.941 3.85974 109.252 3.85974H112.981C113.292 3.85974 113.534 3.93743 113.709 4.0928C113.884 4.24817 114 4.43268 114.059 4.64631L120.992 23.3784C121.012 23.456 121.021 23.5434 121.021 23.6405C121.021 23.7959 120.963 23.9416 120.846 24.0775C120.73 24.1941 120.584 24.2523 120.41 24.2523H117.38C117.088 24.2523 116.875 24.1843 116.739 24.0484C116.603 23.9124 116.515 23.7862 116.477 23.6697L115.224 20.4069H107.009L105.756 23.6697C105.717 23.7862 105.63 23.9124 105.494 24.0484C105.358 24.1843 105.144 24.2523 104.853 24.2523H101.823ZM108.087 16.6488H114.117L111.116 8.25871L108.087 16.6488Z" fill="#D93677"/>
<path d="M129.948 24.2523C129.734 24.2523 129.559 24.1843 129.423 24.0484C129.287 23.9124 129.219 23.7376 129.219 23.524V4.58805C129.219 4.37441 129.287 4.19962 129.423 4.06367C129.559 3.92772 129.734 3.85974 129.948 3.85974H142.941C143.154 3.85974 143.329 3.92772 143.465 4.06367C143.601 4.19962 143.669 4.37441 143.669 4.58805V7.06429C143.669 7.27793 143.601 7.45272 143.465 7.58867C143.329 7.72462 143.154 7.7926 142.941 7.7926H133.764V12.7159H142.358C142.572 12.7159 142.747 12.7839 142.883 12.9199C143.018 13.0558 143.086 13.2306 143.086 13.4443V15.9205C143.086 16.1147 143.018 16.2798 142.883 16.4157C142.747 16.5517 142.572 16.6197 142.358 16.6197H133.764V23.524C133.764 23.7376 133.696 23.9124 133.56 24.0484C133.424 24.1843 133.249 24.2523 133.036 24.2523H129.948ZM154.928 24.5436C153.161 24.5436 151.637 24.2523 150.355 23.6697C149.073 23.087 148.073 22.2131 147.354 21.0478C146.636 19.8631 146.247 18.3773 146.189 16.5905C146.169 15.7554 146.16 14.93 146.16 14.1143C146.16 13.2792 146.169 12.4343 146.189 11.5798C146.247 9.83185 146.636 8.36553 147.354 7.18082C148.092 5.97669 149.102 5.07359 150.384 4.47152C151.685 3.86945 153.2 3.56842 154.928 3.56842C156.638 3.56842 158.133 3.86945 159.415 4.47152C160.716 5.07359 161.736 5.97669 162.474 7.18082C163.212 8.36553 163.6 9.83185 163.639 11.5798C163.678 12.4343 163.697 13.2792 163.697 14.1143C163.697 14.93 163.678 15.7554 163.639 16.5905C163.581 18.3773 163.192 19.8631 162.474 21.0478C161.755 22.2131 160.755 23.087 159.473 23.6697C158.191 24.2523 156.676 24.5436 154.928 24.5436ZM154.928 20.7856C156.055 20.7856 156.977 20.4457 157.696 19.766C158.434 19.0668 158.822 17.9598 158.861 16.4449C158.9 15.5903 158.92 14.794 158.92 14.056C158.92 13.2986 158.9 12.5023 158.861 11.6672C158.842 10.6573 158.657 9.83185 158.308 9.19094C157.958 8.55004 157.492 8.08392 156.909 7.7926C156.346 7.48185 155.686 7.32648 154.928 7.32648C154.171 7.32648 153.501 7.48185 152.918 7.7926C152.336 8.08392 151.87 8.55004 151.52 9.19094C151.19 9.83185 151.005 10.6573 150.967 11.6672C150.947 12.5023 150.937 13.2986 150.937 14.056C150.937 14.794 150.947 15.5903 150.967 16.4449C151.025 17.9598 151.413 19.0668 152.132 19.766C152.85 20.4457 153.783 20.7856 154.928 20.7856ZM168.042 24.2523C167.828 24.2523 167.653 24.1843 167.517 24.0484C167.381 23.9124 167.313 23.7376 167.313 23.524V4.58805C167.313 4.37441 167.381 4.19962 167.517 4.06367C167.653 3.92772 167.828 3.85974 168.042 3.85974H175.762C178.189 3.85974 180.102 4.42297 181.501 5.54941C182.899 6.65644 183.598 8.25871 183.598 10.3562C183.598 11.774 183.258 12.9587 182.579 13.9104C181.899 14.862 180.986 15.5709 179.84 16.037L183.948 23.3201C184.006 23.4366 184.035 23.5434 184.035 23.6405C184.035 23.7959 183.977 23.9416 183.86 24.0775C183.744 24.1941 183.598 24.2523 183.423 24.2523H180.19C179.84 24.2523 179.578 24.1649 179.403 23.9901C179.228 23.7959 179.102 23.6211 179.024 23.4657L175.47 16.7945H171.945V23.524C171.945 23.7376 171.877 23.9124 171.741 24.0484C171.605 24.1843 171.431 24.2523 171.217 24.2523H168.042ZM171.945 13.0947H175.674C176.742 13.0947 177.529 12.8519 178.034 12.3664C178.558 11.8808 178.821 11.2011 178.821 10.3271C178.821 9.45314 178.568 8.76367 178.063 8.25871C177.558 7.75375 176.762 7.50127 175.674 7.50127H171.945V13.0947ZM187.899 24.2523C187.686 24.2523 187.511 24.1843 187.375 24.0484C187.239 23.9124 187.171 23.7376 187.171 23.524V4.58805C187.171 4.37441 187.239 4.19962 187.375 4.06367C187.511 3.92772 187.686 3.85974 187.899 3.85974H201.096C201.31 3.85974 201.485 3.92772 201.621 4.06367C201.757 4.19962 201.825 4.37441 201.825 4.58805V6.91863C201.825 7.11284 201.757 7.27793 201.621 7.41388C201.485 7.54983 201.31 7.6178 201.096 7.6178H191.657V12.1916H200.455C200.669 12.1916 200.844 12.2595 200.98 12.3955C201.116 12.5314 201.184 12.7062 201.184 12.9199V15.0757C201.184 15.2699 201.116 15.435 200.98 15.5709C200.844 15.7069 200.669 15.7748 200.455 15.7748H191.657V20.4943H201.329C201.543 20.4943 201.718 20.5622 201.854 20.6982C201.99 20.8341 202.058 21.0089 202.058 21.2226V23.524C202.058 23.7376 201.99 23.9124 201.854 24.0484C201.718 24.1843 201.543 24.2523 201.329 24.2523H187.899ZM212.862 24.5436C210.998 24.5436 209.434 24.2717 208.172 23.7279C206.929 23.1841 205.987 22.4753 205.346 21.6013C204.705 20.7273 204.365 19.7951 204.327 18.8046C204.327 18.6492 204.385 18.5133 204.501 18.3967C204.618 18.2608 204.764 18.1928 204.938 18.1928H208.055C208.308 18.1928 208.502 18.2511 208.638 18.3676C208.774 18.4647 208.9 18.591 209.017 18.7463C209.153 19.0765 209.366 19.3969 209.658 19.7077C209.968 20.0184 210.386 20.2806 210.91 20.4943C211.435 20.6885 212.085 20.7856 212.862 20.7856C214.125 20.7856 215.067 20.5817 215.688 20.1738C216.329 19.766 216.649 19.2124 216.649 18.5133C216.649 18.0083 216.475 17.6005 216.125 17.2897C215.795 16.979 215.261 16.6974 214.523 16.4449C213.804 16.1924 212.843 15.9205 211.639 15.6292C210.182 15.3184 208.939 14.9203 207.91 14.4348C206.9 13.9298 206.133 13.2889 205.608 12.512C205.103 11.7157 204.851 10.735 204.851 9.56966C204.851 8.40437 205.171 7.37503 205.812 6.48165C206.453 5.56883 207.356 4.85995 208.522 4.35499C209.687 3.83061 211.076 3.56842 212.687 3.56842C213.989 3.56842 215.135 3.74321 216.125 4.0928C217.135 4.44239 217.97 4.89879 218.63 5.46202C219.31 6.02524 219.825 6.62731 220.174 7.26822C220.524 7.90913 220.709 8.53061 220.728 9.13268C220.728 9.28805 220.67 9.43371 220.553 9.56966C220.437 9.68619 220.291 9.74446 220.116 9.74446H216.853C216.659 9.74446 216.484 9.70561 216.329 9.62793C216.174 9.55024 216.047 9.41429 215.95 9.22008C215.834 8.71512 215.484 8.27813 214.902 7.90912C214.338 7.5207 213.6 7.32648 212.687 7.32648C211.736 7.32648 210.978 7.50127 210.415 7.85086C209.871 8.20045 209.599 8.73454 209.599 9.45313C209.599 9.91925 209.735 10.3174 210.007 10.6476C210.299 10.9583 210.774 11.2399 211.435 11.4924C212.115 11.7255 213.008 11.9876 214.115 12.279C215.824 12.6286 217.213 13.0461 218.281 13.5316C219.349 14.0172 220.136 14.6484 220.641 15.4252C221.146 16.1827 221.398 17.144 221.398 18.3093C221.398 19.6106 221.029 20.7273 220.291 21.6595C219.572 22.5918 218.572 23.3104 217.29 23.8153C216.028 24.3009 214.552 24.5436 212.862 24.5436ZM225.254 24.2523C225.04 24.2523 224.865 24.1843 224.729 24.0484C224.593 23.9124 224.525 23.7376 224.525 23.524V4.58805C224.525 4.37441 224.593 4.19962 224.729 4.06367C224.865 3.92772 225.04 3.85974 225.254 3.85974H228.545C228.759 3.85974 228.934 3.92772 229.07 4.06367C229.206 4.19962 229.274 4.37441 229.274 4.58805V23.524C229.274 23.7376 229.206 23.9124 229.07 24.0484C228.934 24.1843 228.759 24.2523 228.545 24.2523H225.254ZM241.758 24.5436C239.933 24.5436 238.369 24.2426 237.068 23.6405C235.786 23.0191 234.786 22.1257 234.067 20.9604C233.368 19.7757 232.989 18.3482 232.931 16.6779C232.912 15.8428 232.902 14.9494 232.902 13.9978C232.902 13.0461 232.912 12.143 232.931 11.2885C232.989 9.65706 233.368 8.26842 234.067 7.12256C234.786 5.97669 235.796 5.10272 237.097 4.50065C238.418 3.87916 239.972 3.56842 241.758 3.56842C243.195 3.56842 244.458 3.75292 245.545 4.12193C246.633 4.49094 247.546 4.97648 248.284 5.57855C249.022 6.16119 249.585 6.8021 249.974 7.50127C250.362 8.20045 250.566 8.87049 250.585 9.5114C250.585 9.68619 250.527 9.84157 250.411 9.97752C250.294 10.094 250.139 10.1523 249.944 10.1523H246.332C246.138 10.1523 245.982 10.1135 245.866 10.0358C245.769 9.95809 245.681 9.84157 245.604 9.68619C245.468 9.33661 245.244 8.98702 244.934 8.63743C244.642 8.26842 244.244 7.95768 243.739 7.7052C243.234 7.45272 242.574 7.32648 241.758 7.32648C240.535 7.32648 239.564 7.64693 238.845 8.28784C238.146 8.92875 237.767 9.97751 237.709 11.4341C237.651 13.1044 237.651 14.8038 237.709 16.5323C237.767 18.0471 238.156 19.1348 238.874 19.7951C239.612 20.4554 240.593 20.7856 241.817 20.7856C242.613 20.7856 243.322 20.6496 243.943 20.3777C244.584 20.0864 245.089 19.6397 245.458 19.0376C245.827 18.4356 246.012 17.6684 246.012 16.7362V16.0079H242.836C242.642 16.0079 242.477 15.9399 242.341 15.804C242.205 15.6486 242.137 15.4738 242.137 15.2796V13.4151C242.137 13.2015 242.205 13.0267 242.341 12.8907C242.477 12.7548 242.642 12.6868 242.836 12.6868H249.974C250.187 12.6868 250.362 12.7548 250.498 12.8907C250.634 13.0267 250.702 13.2015 250.702 13.4151V16.5905C250.702 18.2608 250.333 19.6883 249.595 20.873C248.876 22.0577 247.837 22.9705 246.478 23.6114C245.138 24.2329 243.565 24.5436 241.758 24.5436ZM254.983 24.2523C254.77 24.2523 254.595 24.1843 254.459 24.0484C254.323 23.9124 254.255 23.7376 254.255 23.524V4.58805C254.255 4.37441 254.323 4.19962 254.459 4.06367C254.595 3.92772 254.77 3.85974 254.983 3.85974H258.159C258.372 3.85974 258.547 3.92772 258.683 4.06367C258.819 4.19962 258.887 4.37441 258.887 4.58805V11.8711H266.782V4.58805C266.782 4.37441 266.85 4.19962 266.986 4.06367C267.122 3.92772 267.296 3.85974 267.51 3.85974H270.685C270.899 3.85974 271.074 3.92772 271.21 4.06367C271.346 4.19962 271.414 4.37441 271.414 4.58805V23.524C271.414 23.7376 271.346 23.9124 271.21 24.0484C271.074 24.1843 270.899 24.2523 270.685 24.2523H267.51C267.296 24.2523 267.122 24.1843 266.986 24.0484C266.85 23.9124 266.782 23.7376 266.782 23.524V16.0079H258.887V23.524C258.887 23.7376 258.819 23.9124 258.683 24.0484C258.547 24.1843 258.372 24.2523 258.159 24.2523H254.983ZM280.949 24.2523C280.735 24.2523 280.56 24.1843 280.425 24.0484C280.289 23.9124 280.221 23.7376 280.221 23.524V7.90912H274.919C274.724 7.90912 274.559 7.84115 274.423 7.7052C274.287 7.56925 274.219 7.40417 274.219 7.20995V4.58805C274.219 4.37441 274.287 4.19962 274.423 4.06367C274.559 3.92772 274.724 3.85974 274.919 3.85974H290.184C290.397 3.85974 290.572 3.92772 290.708 4.06367C290.844 4.19962 290.912 4.37441 290.912 4.58805V7.20995C290.912 7.40417 290.844 7.56925 290.708 7.7052C290.572 7.84115 290.397 7.90912 290.184 7.90912H284.911V23.524C284.911 23.7376 284.843 23.9124 284.707 24.0484C284.571 24.1843 284.396 24.2523 284.183 24.2523H280.949Z" fill="#5E00A8"/>
</svg>
