<svg width="186" height="27" viewBox="0 0 186 27" fill="none" xmlns="http://www.w3.org/2000/svg">
<path d="M8.02817 10.3991L4.58926 5.74365H0L5.73962 13.4969L0 21.256H4.58926L8.02817 16.5948L11.4731 21.256H16.0624L10.3228 13.4969L16.0624 5.74365H11.4731L8.02817 10.3991Z" fill="#D93677"/>
<path d="M16.8418 14.9674H25.9583V12.0327H16.8418V14.9674Z" fill="#D93677"/>
<path d="M26.3924 5.74365H16.8418V8.67842H26.3924V5.74365Z" fill="#D93677"/>
<path d="M26.3924 18.3213H16.8418V21.2561H26.3924V18.3213Z" fill="#D93677"/>
<path d="M32.3438 21.2502H28.6445V5.74365H32.3438L38.7949 15.3718H38.8371V5.74365H42.5363V21.256H38.8371L32.3861 11.6278H32.3438V21.2502Z" fill="#D93677"/>
<path d="M43.3164 21.256L49.8536 5.74365H53.2699L59.8129 21.256H55.8425L51.5828 10.5393H51.5465L47.2809 21.256H43.3164Z" fill="#D93677"/>
<path d="M75.8453 22.3946C75.5444 22.3946 75.3156 22.3164 75.1592 22.1599C75.0027 22.0034 74.9244 21.7747 74.9244 21.4737V7.0647C74.9244 6.75172 75.0027 6.52301 75.1592 6.37856C75.3156 6.22207 75.5444 6.14382 75.8453 6.14382C76.1342 6.14382 76.3569 6.22207 76.5134 6.37856C76.6699 6.52301 76.7481 6.75172 76.7481 7.0647V21.4737C76.7481 22.0876 76.4472 22.3946 75.8453 22.3946Z" fill="#1E293B"/>
<path d="M93.6565 20.14C93.3898 20.14 93.1698 20.0733 92.9965 19.94C92.8232 19.7933 92.7232 19.6133 92.6965 19.4C92.6698 19.1733 92.7432 18.9467 92.9165 18.72L97.6365 12.38V13.22L93.1765 7.22C93.0032 6.98 92.9232 6.74667 92.9365 6.52C92.9632 6.29333 93.0632 6.11333 93.2365 5.98C93.4098 5.83333 93.6232 5.76 93.8765 5.76C94.0898 5.76 94.2765 5.81333 94.4365 5.92C94.6098 6.01333 94.7832 6.18 94.9565 6.42L98.8365 11.74H98.1965L102.036 6.42C102.21 6.18 102.376 6.01333 102.536 5.92C102.71 5.81333 102.91 5.76 103.136 5.76C103.403 5.76 103.623 5.83333 103.796 5.98C103.97 6.11333 104.063 6.29333 104.076 6.52C104.103 6.73333 104.023 6.96667 103.836 7.22L99.3765 13.22V12.38L104.076 18.72C104.25 18.9467 104.323 19.1733 104.296 19.4C104.283 19.6133 104.19 19.7933 104.016 19.94C103.843 20.0733 103.616 20.14 103.336 20.14C103.136 20.14 102.95 20.0867 102.776 19.98C102.603 19.8733 102.423 19.7067 102.236 19.48L98.1165 13.84H98.8765L94.7765 19.48C94.6032 19.7067 94.4232 19.8733 94.2365 19.98C94.0632 20.0867 93.8698 20.14 93.6565 20.14ZM110.963 20.18C109.896 20.18 108.976 19.98 108.203 19.58C107.443 19.1667 106.85 18.5867 106.423 17.84C106.01 17.08 105.803 16.18 105.803 15.14C105.803 14.1267 106.01 13.24 106.423 12.48C106.836 11.72 107.403 11.1267 108.123 10.7C108.843 10.2733 109.663 10.06 110.583 10.06C111.263 10.06 111.87 10.1733 112.403 10.4C112.936 10.6133 113.39 10.9333 113.763 11.36C114.15 11.7733 114.436 12.28 114.623 12.88C114.823 13.48 114.923 14.1533 114.923 14.9C114.923 15.1267 114.856 15.3 114.723 15.42C114.59 15.5267 114.39 15.58 114.123 15.58H107.403V14.34H113.563L113.223 14.62C113.223 13.9533 113.123 13.3867 112.923 12.92C112.736 12.4533 112.45 12.1 112.063 11.86C111.69 11.6067 111.223 11.48 110.663 11.48C110.036 11.48 109.503 11.6267 109.063 11.92C108.636 12.2133 108.31 12.62 108.083 13.14C107.856 13.66 107.743 14.2667 107.743 14.96V15.08C107.743 16.2533 108.016 17.14 108.563 17.74C109.123 18.3267 109.93 18.62 110.983 18.62C111.383 18.62 111.803 18.5667 112.243 18.46C112.696 18.3533 113.123 18.1733 113.523 17.92C113.75 17.7867 113.95 17.7267 114.123 17.74C114.31 17.7533 114.456 17.8133 114.563 17.92C114.683 18.0267 114.756 18.16 114.783 18.32C114.81 18.48 114.783 18.6467 114.703 18.82C114.623 18.98 114.483 19.1267 114.283 19.26C113.83 19.5667 113.303 19.8 112.703 19.96C112.103 20.1067 111.523 20.18 110.963 20.18ZM118.125 20.14C117.805 20.14 117.558 20.0533 117.385 19.88C117.212 19.6933 117.125 19.44 117.125 19.12V11.12C117.125 10.7867 117.212 10.5333 117.385 10.36C117.558 10.1867 117.798 10.1 118.105 10.1C118.425 10.1 118.665 10.1867 118.825 10.36C118.998 10.5333 119.085 10.7867 119.085 11.12V12.68L118.865 12.32C119.158 11.5733 119.618 11.0133 120.245 10.64C120.872 10.2533 121.592 10.06 122.405 10.06C123.178 10.06 123.818 10.2067 124.325 10.5C124.845 10.78 125.232 11.2133 125.485 11.8C125.738 12.3733 125.865 13.1 125.865 13.98V19.12C125.865 19.44 125.778 19.6933 125.605 19.88C125.432 20.0533 125.185 20.14 124.865 20.14C124.532 20.14 124.278 20.0533 124.105 19.88C123.932 19.6933 123.845 19.44 123.845 19.12V14.1C123.845 13.26 123.678 12.6467 123.345 12.26C123.025 11.8733 122.518 11.68 121.825 11.68C121.012 11.68 120.358 11.9333 119.865 12.44C119.385 12.9467 119.145 13.6267 119.145 14.48V19.12C119.145 19.8 118.805 20.14 118.125 20.14ZM131.769 20.18C131.089 20.18 130.475 20.0467 129.929 19.78C129.395 19.5133 128.975 19.1533 128.669 18.7C128.362 18.2467 128.209 17.7333 128.209 17.16C128.209 16.44 128.389 15.8733 128.749 15.46C129.122 15.0333 129.729 14.7333 130.569 14.56C131.422 14.3733 132.569 14.28 134.009 14.28H134.949V15.52H134.029C133.069 15.52 132.309 15.5667 131.749 15.66C131.189 15.7533 130.789 15.9133 130.549 16.14C130.322 16.3533 130.209 16.6533 130.209 17.04C130.209 17.5467 130.382 17.96 130.729 18.28C131.075 18.5867 131.555 18.74 132.169 18.74C132.662 18.74 133.095 18.6267 133.469 18.4C133.842 18.16 134.135 17.84 134.349 17.44C134.575 17.04 134.689 16.58 134.689 16.06V13.76C134.689 13 134.529 12.4533 134.209 12.12C133.889 11.7867 133.362 11.62 132.629 11.62C132.202 11.62 131.755 11.6733 131.289 11.78C130.835 11.8867 130.362 12.0667 129.869 12.32C129.642 12.4267 129.449 12.46 129.289 12.42C129.129 12.38 129.002 12.2933 128.909 12.16C128.815 12.0133 128.762 11.86 128.749 11.7C128.749 11.5267 128.789 11.36 128.869 11.2C128.962 11.04 129.115 10.92 129.329 10.84C129.915 10.56 130.495 10.36 131.069 10.24C131.642 10.12 132.182 10.06 132.689 10.06C133.582 10.06 134.315 10.2 134.889 10.48C135.475 10.76 135.909 11.1867 136.189 11.76C136.469 12.3333 136.609 13.0733 136.609 13.98V19.12C136.609 19.44 136.529 19.6933 136.369 19.88C136.209 20.0533 135.975 20.14 135.669 20.14C135.375 20.14 135.142 20.0533 134.969 19.88C134.795 19.6933 134.709 19.44 134.709 19.12V17.82H134.889C134.782 18.3133 134.582 18.74 134.289 19.1C134.009 19.4467 133.655 19.7133 133.229 19.9C132.802 20.0867 132.315 20.18 131.769 20.18ZM142.531 20.18C141.491 20.18 140.704 19.88 140.171 19.28C139.651 18.6667 139.391 17.7867 139.391 16.64V6.78C139.391 6.44667 139.477 6.19333 139.651 6.02C139.824 5.84667 140.071 5.76 140.391 5.76C140.711 5.76 140.957 5.84667 141.131 6.02C141.317 6.19333 141.411 6.44667 141.411 6.78V16.52C141.411 17.1867 141.544 17.6867 141.811 18.02C142.091 18.34 142.491 18.5 143.011 18.5C143.131 18.5 143.237 18.5 143.331 18.5C143.424 18.4867 143.517 18.4733 143.611 18.46C143.771 18.4467 143.884 18.4933 143.951 18.6C144.017 18.6933 144.051 18.8933 144.051 19.2C144.051 19.48 143.991 19.7 143.871 19.86C143.751 20.0067 143.557 20.1 143.291 20.14C143.171 20.1533 143.044 20.16 142.911 20.16C142.777 20.1733 142.651 20.18 142.531 20.18ZM147.57 23.74C147.33 23.74 147.13 23.6733 146.97 23.54C146.823 23.42 146.736 23.2533 146.71 23.04C146.696 22.84 146.736 22.62 146.83 22.38L148.19 19.32V20.18L144.45 11.48C144.356 11.24 144.323 11.0133 144.35 10.8C144.376 10.5867 144.476 10.42 144.65 10.3C144.823 10.1667 145.056 10.1 145.35 10.1C145.603 10.1 145.803 10.16 145.95 10.28C146.096 10.4 146.23 10.6067 146.35 10.9L149.37 18.36H148.81L151.87 10.9C151.99 10.5933 152.13 10.3867 152.29 10.28C152.45 10.16 152.67 10.1 152.95 10.1C153.19 10.1 153.376 10.1667 153.51 10.3C153.656 10.42 153.743 10.5867 153.77 10.8C153.81 11 153.776 11.22 153.67 11.46L148.67 22.96C148.536 23.2667 148.383 23.4733 148.21 23.58C148.05 23.6867 147.836 23.74 147.57 23.74ZM160.055 20.18C159.255 20.18 158.581 20.04 158.035 19.76C157.488 19.48 157.081 19.0667 156.815 18.52C156.548 17.9733 156.415 17.3067 156.415 16.52V11.8H155.215C154.948 11.8 154.741 11.7333 154.595 11.6C154.448 11.4533 154.375 11.26 154.375 11.02C154.375 10.7667 154.448 10.5733 154.595 10.44C154.741 10.3067 154.948 10.24 155.215 10.24H156.415V8.18C156.415 7.84667 156.501 7.59333 156.675 7.42C156.861 7.24667 157.115 7.16 157.435 7.16C157.755 7.16 158.001 7.24667 158.175 7.42C158.348 7.59333 158.435 7.84667 158.435 8.18V10.24H160.775C161.041 10.24 161.248 10.3067 161.395 10.44C161.541 10.5733 161.615 10.7667 161.615 11.02C161.615 11.26 161.541 11.4533 161.395 11.6C161.248 11.7333 161.041 11.8 160.775 11.8H158.435V16.36C158.435 17.0667 158.581 17.6 158.875 17.96C159.181 18.32 159.675 18.5 160.355 18.5C160.595 18.5 160.801 18.48 160.975 18.44C161.161 18.3867 161.315 18.3533 161.435 18.34C161.581 18.34 161.701 18.3933 161.795 18.5C161.888 18.5933 161.935 18.78 161.935 19.06C161.935 19.26 161.895 19.4467 161.815 19.62C161.748 19.7933 161.621 19.9067 161.435 19.96C161.275 20.0133 161.055 20.06 160.775 20.1C160.508 20.1533 160.268 20.18 160.055 20.18ZM164.375 20.12C164.055 20.12 163.808 20.0267 163.635 19.84C163.462 19.64 163.375 19.3667 163.375 19.02V11.22C163.375 10.8733 163.462 10.6067 163.635 10.42C163.808 10.2333 164.055 10.14 164.375 10.14C164.695 10.14 164.942 10.2333 165.115 10.42C165.302 10.6067 165.395 10.8733 165.395 11.22V19.02C165.395 19.3667 165.308 19.64 165.135 19.84C164.962 20.0267 164.708 20.12 164.375 20.12ZM164.375 8.06C163.975 8.06 163.662 7.96 163.435 7.76C163.222 7.56 163.115 7.28 163.115 6.92C163.115 6.54667 163.222 6.26667 163.435 6.08C163.662 5.88 163.975 5.78 164.375 5.78C164.775 5.78 165.082 5.88 165.295 6.08C165.522 6.26667 165.635 6.54667 165.635 6.92C165.635 7.28 165.522 7.56 165.295 7.76C165.082 7.96 164.775 8.06 164.375 8.06ZM172.538 20.18C171.538 20.18 170.672 19.9733 169.938 19.56C169.218 19.1333 168.658 18.54 168.258 17.78C167.858 17.0067 167.658 16.1 167.658 15.06C167.658 14.2867 167.772 13.5933 167.998 12.98C168.225 12.3533 168.545 11.8267 168.958 11.4C169.385 10.9733 169.898 10.6467 170.498 10.42C171.112 10.18 171.792 10.06 172.538 10.06C173.005 10.06 173.492 10.1333 173.998 10.28C174.518 10.4133 174.998 10.64 175.438 10.96C175.612 11.0667 175.718 11.2 175.758 11.36C175.812 11.5067 175.818 11.66 175.778 11.82C175.752 11.98 175.678 12.12 175.558 12.24C175.452 12.3467 175.318 12.4133 175.158 12.44C174.998 12.4533 174.825 12.4067 174.638 12.3C174.318 12.0733 173.992 11.9133 173.658 11.82C173.325 11.7133 173.005 11.66 172.698 11.66C172.218 11.66 171.792 11.74 171.418 11.9C171.058 12.0467 170.752 12.2667 170.498 12.56C170.245 12.84 170.052 13.1933 169.918 13.62C169.798 14.0467 169.738 14.5333 169.738 15.08C169.738 16.1733 169.992 17.0333 170.498 17.66C171.018 18.2733 171.752 18.58 172.698 18.58C173.005 18.58 173.325 18.5333 173.658 18.44C173.992 18.3467 174.318 18.1867 174.638 17.96C174.825 17.8533 174.998 17.8133 175.158 17.84C175.318 17.8667 175.445 17.94 175.538 18.06C175.645 18.1667 175.712 18.3 175.738 18.46C175.778 18.6067 175.772 18.76 175.718 18.92C175.665 19.08 175.552 19.2133 175.378 19.32C174.952 19.6267 174.485 19.8467 173.978 19.98C173.485 20.1133 173.005 20.18 172.538 20.18ZM180.994 20.18C180.408 20.18 179.801 20.1133 179.174 19.98C178.561 19.8467 177.994 19.62 177.474 19.3C177.301 19.18 177.181 19.0467 177.114 18.9C177.048 18.7533 177.021 18.6067 177.034 18.46C177.061 18.3 177.121 18.1667 177.214 18.06C177.321 17.94 177.448 17.8667 177.594 17.84C177.754 17.8133 177.921 17.8467 178.094 17.94C178.614 18.2333 179.114 18.44 179.594 18.56C180.074 18.6667 180.548 18.72 181.014 18.72C181.721 18.72 182.254 18.5933 182.614 18.34C182.974 18.0867 183.154 17.7467 183.154 17.32C183.154 16.9733 183.034 16.7067 182.794 16.52C182.554 16.32 182.194 16.1667 181.714 16.06L179.814 15.68C178.988 15.5067 178.361 15.2 177.934 14.76C177.508 14.32 177.294 13.76 177.294 13.08C177.294 12.4667 177.461 11.9333 177.794 11.48C178.128 11.0267 178.594 10.68 179.194 10.44C179.794 10.1867 180.488 10.06 181.274 10.06C181.861 10.06 182.414 10.1333 182.934 10.28C183.454 10.4267 183.934 10.6467 184.374 10.94C184.548 11.0333 184.661 11.16 184.714 11.32C184.768 11.4667 184.774 11.6133 184.734 11.76C184.708 11.9067 184.641 12.04 184.534 12.16C184.428 12.2667 184.294 12.3333 184.134 12.36C183.988 12.3733 183.821 12.3333 183.634 12.24C183.234 11.9867 182.834 11.8067 182.434 11.7C182.048 11.5933 181.661 11.54 181.274 11.54C180.568 11.54 180.034 11.6733 179.674 11.94C179.328 12.1933 179.154 12.54 179.154 12.98C179.154 13.3133 179.261 13.5867 179.474 13.8C179.688 14.0133 180.021 14.1667 180.474 14.26L182.374 14.64C183.241 14.8133 183.894 15.1067 184.334 15.52C184.788 15.9333 185.014 16.4933 185.014 17.2C185.014 18.12 184.648 18.8467 183.914 19.38C183.181 19.9133 182.208 20.18 180.994 20.18Z" fill="#D93677"/>
</svg>
